#!OML:ASF I:\Actors\actors\Patient Classification 2\Patient 1\Session 1\actor1.ASF
:FULLY-SPECIFIED
:DEGREES
154
root -0.478785 18.6388 5.64423 0.659538 -4.36655 0.0117414
lowerback 1.16693 1.50292 -1.5531
upperback -2.29203 1.94813 -0.588025
thorax -3.03881 1.0002 0.191208
lowerneck -9.71039 -2.35038 -1.67556
upperneck 25.4063 -3.92655 3.57577
head 9.72982 -1.5996 1.08941
rclavicle 6.4605e-015 -7.95139e-016
rhumerus -51.5761 0.499465 -89.4407
rradius 47.5286
rwrist 13.2037
rhand -7.94014 -30.1678
rfingers 7.12502
rthumb 17.9664 -59.358
lclavicle 6.4605e-015 -7.95139e-016
lhumerus -44.2874 -2.86715 92.686
lradius 41.2843
lwrist -5.09524
lhand -7.80052 -26.7556
lfingers 7.12502
lthumb 18.1008 2.42213
rfemur 0 0 0
rtibia 0
rfoot 0 0
rtoes 0
lfemur -1.40457 -4.78034 -15.5297
ltibia 19.5732
lfoot -24.5319 18.5471
ltoes -55.8257
155
root -0.478664 18.6398 5.63321 0.658416 -4.39063 0.00669601
lowerback 1.36948 1.50771 -1.53286
upperback -2.25481 1.95102 -0.601211
thorax -3.11354 1.0011 0.161004
lowerneck -9.65268 -2.37667 -1.71725
upperneck 25.3077 -3.95985 3.60801
head 9.68613 -1.61744 1.10427
rclavicle -1.09704e-014 -2.78299e-015
rhumerus -51.8225 0.9084 -89.5858
rradius 48.1935
rwrist 12.7885
rhand -7.96113 -30.0783
rfingers 7.12502
rthumb 17.9462 -59.2703
lclavicle -1.09704e-014 -2.78299e-015
lhumerus -44.435 -3.70444 93.0509
lradius 41.9831
lwrist -4.29304
lhand -7.93232 -26.6719
lfingers 7.12502
lthumb 17.974 2.51757
rfemur 0 0 0
rtibia 0
rfoot 0 0
rtoes 0
lfemur -1.46487 -4.65031 -15.5064
ltibia 19.6075
lfoot -24.4355 18.5153
ltoes -55.861
156
root -0.478377 18.6406 5.6217 0.642485 -4.4273 0.0441666
lowerback 1.60251 1.51477 -1.57187
upperback -2.22444 1.95451 -0.610715
thorax -3.21479 1.00387 0.166582
lowerneck -9.66796 -2.37116 -1.66865
upperneck 25.3011 -3.9427 3.5362
head 9.68359 -1.61256 1.07275
rclavicle -3.76821e-014 4.37326e-015
rhumerus -51.9504 1.27692 -89.6775
rradius 48.5802
rwrist 12.4907
rhand -7.96575 -30.2611
rfingers 7.12502
rthumb 17.9418 -59.4535
lclavicle -3.76821e-014 4.37326e-015
lhumerus -44.5335 -4.37992 93.3492
lradius 42.5303
lwrist -3.55979
lhand -7.97948 -26.5812
lfingers 7.12502
lthumb 17.9286 2.61246
rfemur 0 0 0
rtibia 0
rfoot 0 0
rtoes 0
lfemur -1.50722 -4.57178 -15.5379
ltibia 19.6352
lfoot -24.3537 18.5421
ltoes -55.9229
157
root -0.477902 18.6408 5.6104 0.606257 -4.47296 0.0824296
lowerback 1.83571 1.53809 -1.59821
upperback -2.16848 1.98034 -0.616917
thorax -3.28976 1.01729 0.167853
lowerneck -9.751 -2.38569 -1.58642
upperneck 25.3696 -3.95633 3.43695
head 9.72057 -1.61999 1.02191
rclavicle -1.9133e-015 7.95139e-015
rhumerus -51.89 1.55681 -89.6526
rradius 48.8065
rwrist 12.6934
rhand -7.32245 -30.8402
rfingers 7.12502
rthumb 18.5607 -59.9747
lclavicle -1.9133e-015 7.95139e-015
lhumerus -44.5408 -4.94318 93.6068
lradius 42.8957
lwrist -2.78565
lhand -8.02502 -26.5057
lfingers 7.12502
lthumb 17.8848 2.69195
rfemur 0 0 0
rtibia 0
rfoot 0 0
rtoes 0
lfemur -1.51763 -4.50914 -15.5758
ltibia 19.6651
lfoot -24.3136 18.5405
ltoes -55.9678
158
root -0.47752 18.6412 5.59832 0.569864 -4.54052 0.120193
lowerback 2.04081 1.5616 -1.63146
upperback -2.09512 2.00703 -0.618065
thorax -3.33137 1.03113 0.179168
lowerneck -9.85023 -2.41728 -1.56349
upperneck 25.4851 -3.99732 3.38821
head 9.78068 -1.63953 0.995467
rclavicle 9.69075e-015 3.18055e-015
rhumerus -51.6782 1.70878 -89.4927
rradius 49.0151
rwrist 13.8983
rhand -5.17462 -31.9025
rfingers 7.12502
rthumb 20.6256 -60.8267
lclavicle 9.69075e-015 3.18055e-015
lhumerus -44.424 -5.32176 93.783
lradius 43.0713
lwrist -2.0341
lhand -8.05083 -26.187
lfingers 7.12502
lthumb 17.8599 3.01288
rfemur 0 0 0
rtibia 0
rfoot 0 0
rtoes 0
lfemur -1.53241 -4.39944 -15.6131
ltibia 19.6991
lfoot -24.2767 18.5136
ltoes -55.9717
159
root -0.478753 18.6423 5.58625 0.561874 -4.59734 0.112669
lowerback 2.18287 1.56297 -1.65349
upperback -2.01763 2.0064 -0.603198
thorax -3.33284 1.03111 0.20399
lowerneck -9.97983 -2.43502 -1.59795
upperneck 25.6535 -4.03216 3.42714
head 9.86877 -1.65108 1.00979
rclavicle -1.51201e-014 3.97569e-015
rhumerus -51.4921 2.16599 -89.7598
rradius 48.7671
rwrist 12.372
rhand -7.43907 -31.6204
rfingers 7.12502
rthumb 18.4485 -60.7656
lclavicle -1.51201e-014 3.97569e-015
lhumerus -44.1524 -5.51798 93.8562
lradius 42.9771
lwrist -1.42987
lhand -8.22285 -25.7725
lfingers 7.12502
lthumb 17.6944 3.44241
rfemur 0 0 0
rtibia 0
rfoot 0 0
rtoes 0
lfemur -1.58738 -4.29711 -15.5929
ltibia 19.7361
lfoot -24.2261 18.5175
ltoes -55.9755
160
root -0.481195 18.6441 5.57462 0.589381 -4.6278 0.0614206
lowerback 2.27217 1.55894 -1.63525
upperback -1.93543 2.00125 -0.588451
thorax -3.29811 1.02772 0.208136
lowerneck -10.1238 -2.44754 -1.61709
upperneck 25.7891 -4.06904 3.49545
head 9.94861 -1.65893 1.03132
rclavicle 2.23633e-015 7.95139e-015
rhumerus -51.2458 2.43925 -89.8356
rradius 48.7194
rwrist 12.4115
rhand -7.13662 -32.0686
rfingers 7.12502
rthumb 18.7394 -61.1859
lclavicle 2.23633e-015 7.95139e-015
lhumerus -43.8293 -5.65755 93.8626
lradius 42.7868
lwrist -1.12331
lhand -8.44305 -25.5421
lfingers 7.12502
lthumb 17.4825 3.69181
rfemur 0 0 0
rtibia 0
rfoot 0 0
rtoes 0
lfemur -1.6635 -4.28791 -15.5162
ltibia 19.776
lfoot -24.2011 18.5034
ltoes -55.9639
161
root -0.483076 18.6459 5.56463 0.636618 -4.64966 0.00246017
lowerback 2.33015 1.55832 -1.60414
upperback -1.86589 2.00201 -0.563294
thorax -3.25881 1.02717 0.216168
lowerneck -10.2377 -2.44543 -1.63997
upperneck 25.8854 -4.0644 3.49513
head 10.0058 -1.65631 1.03458
rclavicle 1.72694e-014 -1.11319e-014
rhumerus -50.9699 2.70688 -89.8048
rradius 48.8103
rwrist 13.4403
rhand -5.26963 -33.0094
rfingers 7.12502
rthumb 20.5343 -61.9435
lclavicle 1.72694e-014 -1.11319e-014
lhumerus -43.6071 -5.83456 93.9194
lradius 42.7597
lwrist -1.04479
lhand -8.6522 -25.1867
lfingers 7.12502
lthumb 17.2812 4.06495
rfemur 0 0 0
rtibia 0
rfoot 0 0
rtoes 0
lfemur -1.74346 -4.34073 -15.4361
ltibia 19.8078
lfoot -24.2163 18.4994
ltoes -55.93
162
root -0.483475 18.6473 5.55669 0.658621 -4.64755 -0.0571241
lowerback 2.38699 1.53749 -1.57504
upperback -1.79967 1.97642 -0.514288
thorax -3.22278 1.01387 0.251173
lowerneck -10.2969 -2.41386 -1.68242
upperneck 25.9511 -4.00818 3.47784
head 10.0397 -1.63474 1.04189
rclavicle -1.03057e-014 7.55382e-015
rhumerus -50.8621 3.26403 -89.9616
rradius 49.1632
rwrist 13.8533
rhand -4.08175 -34.0109
rfingers 7.12502
rthumb 21.6755 -62.8175
lclavicle -1.03057e-014 7.55382e-015
lhumerus -43.4947 -6.09104 94.0799
lradius 42.9285
lwrist -0.840576
lhand -8.85762 -24.5444
lfingers 7.12502
lthumb 17.0835 4.7245
rfemur 0 0 0
rtibia 0
rfoot 0 0
rtoes 0
lfemur -1.79045 -4.40577 -15.3696
ltibia 19.8188
lfoot -24.2812 18.5194
ltoes -55.8941
163
root -0.483232 18.6491 5.54936 0.668204 -4.63921 -0.0376994
lowerback 2.4589 1.51244 -1.61998
upperback -1.73784 1.94092 -0.499238
thorax -3.20099 0.996929 0.292678
lowerneck -10.2805 -2.3726 -1.62226
upperneck 25.924 -3.94474 3.41623
head 10.0221 -1.607 1.01756
rclavicle -2.43138e-014 4.57205e-015
rhumerus -50.9648 4.05115 -90.4088
rradius 49.7459
rwrist 13.1263
rhand -4.64655 -34.4768
rfingers 7.12502
rthumb 21.133 -63.3451
lclavicle -2.43138e-014 4.57205e-015
lhumerus -43.455 -6.47999 94.2899
lradius 43.2776
lwrist -0.328874
lhand -8.97706 -23.8667
lfingers 7.12502
lthumb 16.9685 5.41211
rfemur 0 0 0
rtibia 0
rfoot 0 0
rtoes 0
lfemur -1.81673 -4.46333 -15.3931
ltibia 19.8135
lfoot -24.3624 18.5171
ltoes -55.8385
